<svg width="183" height="64" viewBox="0 0 183 64" fill="none" xmlns="http://www.w3.org/2000/svg">
<path d="M165.35 0.000961714C164.026 0.0292595 162.754 0.515553 161.76 1.37405C161.362 1.73696 161.002 2.13857 160.687 2.57269C160.389 3.06415 152.23 16.7969 136.212 43.7709H136.177C135.839 43.0843 131.715 36.2808 124.075 23.6135H102.777L124.694 61.6379C124.83 61.9552 125.057 62.2269 125.348 62.4201C126.059 62.7435 126.803 62.9925 127.568 63.1629C130.475 63.7255 133.432 64.0026 136.395 63.9901H137.6C140.387 64.061 143.171 63.7503 145.871 63.0672C146.416 62.9129 146.914 62.6309 147.322 62.2456L149.364 58.6947C149.544 58.4021 160.756 38.8375 183 0.000961714H165.35Z" fill="#1C1C1C"/>
<path d="M119.91 16.6806L18.4471 16.8775C17.979 16.8768 17.5265 17.0428 17.1737 17.3446C16.8487 17.7128 16.6857 18.1924 16.7206 18.6783V22.1729C16.6937 22.5288 16.7824 22.8839 16.9741 23.1873C17.1658 23.4906 17.4505 23.7265 17.7874 23.8611C17.8576 23.8937 17.9305 23.92 18.0054 23.9399C18.0852 23.9518 18.1665 23.9518 18.2463 23.9399C32.3051 23.878 55.6103 23.7036 65.826 23.7036H66.2046C67.9927 23.7477 69.7754 23.917 71.539 24.21C72.909 24.4183 74.2542 24.7615 75.5542 25.2342C78.6415 26.305 81.2064 28.474 82.7413 31.3118C84.0147 33.7654 84.6494 36.7854 84.6456 40.3719V46.9447C84.6456 53.4312 82.7088 58.0063 78.8351 60.67C75.7033 62.8646 71.0399 63.9845 64.8566 63.9845H7.37669C5.39526 63.9446 3.50973 63.14 2.1289 61.7453C0.748075 60.3506 -0.0167429 58.4781 0.000278131 56.5338V47.4399H65.4474C65.7809 47.4652 66.1129 47.3748 66.3854 47.1846C66.6579 46.9943 66.8538 46.7163 66.9388 46.3989C66.991 46.3132 67.0297 46.2202 67.0535 46.1231C67.0619 46.0577 67.0619 45.9916 67.0535 45.9262V41.1035C67.0541 40.7906 66.9493 40.4862 66.7553 40.2379C66.5613 39.9895 66.289 39.8111 65.9809 39.7304C65.7963 39.6677 65.6025 39.6354 65.4073 39.6347H18.4471C11.0095 39.6347 5.89108 37.8115 3.09194 34.1649C2.59964 33.6002 2.19914 32.9643 1.9046 32.2797C1.5372 31.5908 1.23758 30.8691 1.00979 30.1244C0.733907 29.1567 0.515582 28.174 0.355904 27.1813C0.142732 25.3395 0.0507603 23.4861 0.0805723 21.6327V21.2613C0.0805723 15.3563 0.594897 11.2839 1.62354 9.0442C2.19403 7.47417 3.09277 6.03849 4.26208 4.82928C4.76909 4.1981 5.37972 3.65417 6.0689 3.21984C7.89795 1.97328 9.96993 1.11113 12.1547 0.687507C14.1818 0.213638 16.2601 -0.0168987 18.3438 0.000963588H106.781C107.844 0.0148391 108.879 0.335853 109.758 0.923865C110.92 1.70441 111.823 2.80197 112.356 4.08083C115.109 8.65778 117.627 12.8577 119.91 16.6806Z" fill="#1C1C1C"/>
</svg>