<svg width="39" height="30" viewBox="0 0 78 60" fill="none" xmlns="http://www.w3.org/2000/svg">
<g id="Group">
<g id="Group_2">
<path id="Vector" d="M8.69619 42.8774V43.4226L5.91152 43.7282V42.9385C5.91152 41.7235 5.39321 41.0854 4.43728 41.0854C3.48135 41.0854 2.96305 41.7235 2.96305 42.9385V43.2124C2.96305 44.4592 3.45446 45.5203 5.39321 47.3441C8.04341 49.8354 9.02624 51.5981 9.02624 54.1506V55.214C9.02624 58.253 7.41509 59.9839 4.5473 59.9839C1.67951 59.9839 0.0683652 58.253 0.0683652 55.214V53.7863L2.85304 53.4831V55.0013C2.85304 56.3387 3.39823 57.0061 4.49107 57.0061C5.58391 57.0061 6.12911 56.3387 6.12911 55.0013V54.3021C6.12911 52.9648 5.55458 51.9013 3.61582 50.0799C0.965622 47.5886 0.065918 45.8259 0.065918 43.3346V42.8799C0.065918 39.8409 1.62328 38.11 4.38106 38.11C7.13883 38.1051 8.69619 39.8385 8.69619 42.8774Z" fill="#ffffff"/>
<path id="Vector_2" d="M20.1944 59.6785H17.3535L13.5566 45.5816H13.5029V59.6785H10.772V38.4109H13.9943L17.4073 51.08H17.461V38.4109H20.1919V59.6785H20.1944Z" fill="#ffffff"/>
<path id="Vector_3" d="M32.5677 59.6785H29.6192L28.9909 54.8475H25.7955L25.1671 59.6785H22.2725L25.5779 38.4109H29.2647L32.5677 59.6785ZM27.3528 42.9681L26.1793 51.9308H28.6095L27.4359 42.9681H27.3528Z" fill="#ffffff"/>
<path id="Vector_4" d="M43.6303 43.7871V45.4887C43.6303 48.9824 41.936 50.8673 38.8237 50.8673H37.5402V59.6785H34.6455V38.4109H38.8237C41.9384 38.4109 43.6303 40.2934 43.6303 43.7871ZM37.5402 41.3887V47.8895H38.7137C40.1073 47.8895 40.7356 47.0705 40.7356 45.276V43.9998C40.7356 42.2077 40.1073 41.3862 38.7137 41.3862H37.5402V41.3887Z" fill="#ffffff"/>
<path id="Vector_5" d="M51.7451 59.6785H48.0045L44.7822 38.4109H47.7307L49.887 54.6348H49.9408L52.0703 38.4109H54.965L51.7451 59.6785Z" fill="#ffffff"/>
<path id="Vector_6" d="M65.9472 43.4839V54.6054C65.9472 57.9475 64.1722 59.9816 61.2775 59.9816C58.3829 59.9816 56.6079 57.9451 56.6079 54.6054V43.4839C56.6079 40.1418 58.3829 38.1052 61.2775 38.1052C64.1722 38.1052 65.9472 40.1418 65.9472 43.4839ZM59.5026 43.5156V54.5736C59.5026 56.153 60.1309 57.0038 61.2775 57.0038C62.4242 57.0038 63.0525 56.153 63.0525 54.5736V43.5156C63.0525 41.9363 62.4242 41.0855 61.2775 41.0855C60.1309 41.083 59.5026 41.9338 59.5026 43.5156Z" fill="#ffffff"/>
<path id="Vector_7" d="M74.279 48.7721L77.9389 59.6785H74.8804L72.504 52.2046H72.4502L70.2108 59.6785H67.2061L70.866 48.6499L67.4236 38.4109H70.4821L72.6116 45.1855H72.6654L74.7141 38.4109H77.7188L74.279 48.7721Z" fill="#ffffff"/>
</g>
<g id="Group_3">
<path id="Vector_8" d="M70.4798 0.00732422C69.9468 0.00732422 69.4407 0.202912 68.9493 0.603864C68.7537 0.792117 68.6021 0.960811 68.4921 1.12462C68.365 1.33732 64.8836 7.30027 58.06 19.0233H58.0429C57.8987 18.725 56.1408 15.7692 52.8867 10.2659H43.8066L53.1483 26.7856C53.2168 26.9298 53.3097 27.0496 53.4271 27.1254C53.6373 27.2355 53.9503 27.3381 54.3732 27.4482C55.5663 27.6877 56.8156 27.8051 58.1358 27.8051H58.6517C60.1063 27.8051 61.2799 27.6682 62.1771 27.4041C62.4803 27.2941 62.6832 27.1743 62.7932 27.0472L63.6636 25.5045C63.7394 25.3774 68.5239 16.8742 78.0001 0.00732422H70.4798Z" fill="#ffffff"/>
<path id="Vector_9" d="M51.1117 7.24161C51.1117 7.24161 8.52269 7.32717 7.86259 7.32717C7.65967 7.32717 7.4812 7.39563 7.32228 7.53254C7.19515 7.65967 7.12669 7.85526 7.12669 8.11197V9.62776C7.12669 9.98471 7.27827 10.2316 7.58387 10.3612C7.6181 10.3783 7.65233 10.3857 7.67678 10.3954C7.71101 10.4028 7.73546 10.4028 7.77702 10.4028C13.7718 10.3783 23.7027 10.3001 28.0569 10.3001H28.2183C28.7855 10.3001 29.5458 10.3759 30.492 10.5226C31.1765 10.6424 31.7437 10.7866 32.1985 10.9651C33.6189 11.5201 34.6409 12.4051 35.2667 13.6153C35.807 14.6812 36.0784 15.9917 36.0784 17.5515V20.4046C36.0784 23.2235 35.2496 25.2087 33.6018 26.3675C32.2669 27.321 30.2793 27.8076 27.6413 27.8076H3.14405C2.22235 27.8076 1.41067 27.4164 0.726116 26.6316C0.234704 26.0448 0 25.3529 0 24.5706V20.6173H27.8956C28.2158 20.6173 28.4285 20.473 28.5288 20.165C28.5532 20.1234 28.5703 20.0794 28.5801 20.0452C28.5874 20.0036 28.5874 19.9767 28.5874 19.9596V17.8644C28.5874 17.5833 28.4359 17.3877 28.1303 17.2679C28.0545 17.2434 27.9787 17.2263 27.8931 17.2263H7.85769C4.68674 17.2263 2.50596 16.4342 1.31532 14.8499C1.07817 14.5614 0.909478 14.2876 0.80924 14.0309C0.674774 13.784 0.547643 13.4686 0.427846 13.0945C0.327608 12.7547 0.232256 12.3269 0.149131 11.8159C0.0733414 11.2707 0.031784 10.4688 0.031784 9.40528V9.24393C0.031784 6.6793 0.251815 4.90678 0.691885 3.93619C0.91192 3.2883 1.29332 2.67465 1.81651 2.10501C2.105 1.76517 2.3666 1.53536 2.58663 1.40578C3.35675 0.867916 4.21734 0.503636 5.1806 0.305604C5.99962 0.100238 6.87977 0.00733421 7.81858 0.00733421L45.513 0C45.936 0 46.3589 0.127135 46.7819 0.400956C47.2464 0.706561 47.618 1.15885 47.8894 1.77251C49.0654 3.76505 50.1411 5.5889 51.1117 7.24161Z" fill="#ffffff"/>
</g>
</g>
</svg>
