<svg width="80" height="29" viewBox="0 0 80 29" fill="none" xmlns="http://www.w3.org/2000/svg">
<g id="Vector">
<path d="M72.2844 0.000421369C71.7054 0.0128199 71.1495 0.225887 70.7147 0.602032C70.5407 0.761041 70.3836 0.937003 70.2458 1.12721C70.1154 1.34254 66.5488 7.35946 59.5462 19.178H59.5311C59.3832 18.8772 57.5803 15.8962 54.2403 10.3461H44.9299L54.5111 27.0063C54.5706 27.1453 54.6699 27.2644 54.7969 27.349C55.1079 27.4907 55.4332 27.5998 55.7674 27.6745C57.0383 27.9209 58.331 28.0424 59.6264 28.0369H60.153C61.3715 28.0679 62.5885 27.9318 63.7688 27.6325C64.0069 27.5649 64.2246 27.4414 64.4032 27.2726L65.2959 25.7168C65.3745 25.5886 70.2758 17.0164 80 0.000421369H72.2844Z" fill="#903EFA"/>
<path d="M52.4198 7.3085L8.0643 7.3948C7.85966 7.39449 7.66186 7.4672 7.50763 7.59944C7.36555 7.76077 7.29431 7.97091 7.30953 8.18379V9.71494C7.29778 9.87088 7.33659 10.0265 7.42038 10.1594C7.50418 10.2923 7.62865 10.3956 7.77593 10.4546C7.80659 10.4689 7.83848 10.4804 7.87121 10.4891C7.90612 10.4943 7.94163 10.4943 7.97653 10.4891C14.1225 10.462 24.3105 10.3856 28.7764 10.3856H28.9419C29.7236 10.4049 30.5029 10.4791 31.2739 10.6075C31.8728 10.6988 32.4609 10.8491 33.0291 11.0562C34.3788 11.5254 35.5001 12.4757 36.1711 13.7191C36.7277 14.7941 37.0052 16.1173 37.0035 17.6887V20.5686C37.0035 23.4106 36.1568 25.4151 34.4634 26.5822C33.0943 27.5438 31.0557 28.0344 28.3526 28.0344H3.22478C2.35859 28.017 1.53431 27.6645 0.930668 27.0534C0.327027 26.4423 -0.0073193 25.6218 0.000121587 24.77V20.7855H28.6109C28.7567 20.7966 28.9018 20.757 29.0209 20.6737C29.1401 20.5903 29.2257 20.4685 29.2628 20.3294C29.2857 20.2919 29.3026 20.2511 29.313 20.2086C29.3167 20.1799 29.3167 20.1509 29.313 20.1223V18.0093C29.3133 17.8722 29.2675 17.7388 29.1826 17.63C29.0978 17.5212 28.9788 17.443 28.8441 17.4076C28.7634 17.3802 28.6787 17.366 28.5933 17.3657H8.0643C4.81288 17.3657 2.57534 16.5669 1.35167 14.9692C1.13645 14.7217 0.961372 14.4431 0.832611 14.1432C0.671999 13.8413 0.541017 13.5251 0.441439 13.1989C0.320834 12.7748 0.225391 12.3443 0.155586 11.9093C0.0623967 11.1024 0.0221903 10.2903 0.0352228 9.47824V9.31551C0.0352228 6.72827 0.260064 4.94398 0.709746 3.96266C0.959137 3.27477 1.35203 2.64573 1.8632 2.11592C2.08485 1.83937 2.35179 1.60105 2.65307 1.41075C3.45266 0.864581 4.35844 0.486835 5.31355 0.301227C6.19971 0.0936043 7.10823 -0.00740406 8.01916 0.000422191H46.6801C47.1449 0.00650168 47.5975 0.147152 47.9815 0.404786C48.4894 0.746779 48.8844 1.22767 49.1174 1.78799C50.321 3.79336 51.4218 5.63353 52.4198 7.3085Z" fill="#903EFA"/>
</g>
</svg>
