<svg width="1440" height="398" viewBox="0 0 1440 398" fill="none" xmlns="http://www.w3.org/2000/svg">
  <path d="M0 5.30032C80.0018 7.65812 159.998 10.0159 240 29.3003C320.002 48.5847 399.998 84.7852 480 101.3C560.002 117.816 639.998 114.635 720 106.1C800.002 97.5658 879.998 83.6775 960 58.1003C1040 32.5232 1120 -4.7533 1200 0.500322C1280 5.75395 1360 53.5271 1440 101.3V398.9C1360 398.9 1280 398.9 1200 398.9C1120 398.9 1040 398.9 960 398.9C879.998 398.9 800.002 398.9 720 398.9C639.998 398.9 560.002 398.9 480 398.9C399.998 398.9 320.002 398.9 240 398.9C159.998 398.9 80.0018 398.9 0 398.9V5.30032Z" fill="#9747FF" fill-opacity="0.19"/>
  <path d="M0 120.499C80.0018 101.547 159.998 82.595 240 67.6992C320.002 52.8033 399.998 41.9638 480 48.4992C560.002 55.0345 639.998 78.9502 720 101.299C800.002 123.648 879.998 144.425 960 139.699C1040 134.973 1120 104.749 1200 91.6992C1280 78.6495 1360 82.7743 1440 86.8992V398.899C1360 398.899 1280 398.899 1200 398.899C1120 398.899 1040 398.899 960 398.899C879.998 398.899 800.002 398.899 720 398.899C639.998 398.899 560.002 398.899 480 398.899C399.998 398.899 320.002 398.899 240 398.899C159.998 398.899 80.0018 398.899 0 398.899V120.499Z" fill="#9747FF" fill-opacity="0.19"/>
  <path d="M0 139.7C80.0018 168.98 159.998 198.265 240 192.5C320.002 186.734 399.998 145.924 480 139.7C560.002 133.475 639.998 161.832 720 158.9C800.002 155.967 879.998 121.739 960 125.3C1040 128.86 1120 170.203 1200 173.3C1280 176.396 1360 141.25 1440 106.1V398.9C1360 398.9 1280 398.9 1200 398.9C1120 398.9 1040 398.9 960 398.9C879.998 398.9 800.002 398.9 720 398.9C639.998 398.9 560.002 398.9 480 398.9C399.998 398.9 320.002 398.9 240 398.9C159.998 398.9 80.0018 398.9 0 398.9V139.7Z" fill="#9747FF" fill-opacity="0.19"/>
  <path d="M0 173.301C80.0018 145.693 159.998 118.085 240 115.701C320.002 113.317 399.998 136.156 480 158.901C560.002 181.646 639.998 204.29 720 197.301C800.002 190.312 879.998 153.695 960 154.101C1040 154.507 1120 191.931 1200 197.301C1280 202.671 1360 175.986 1440 149.301V398.901C1360 398.901 1280 398.901 1200 398.901C1120 398.901 1040 398.901 960 398.901C879.998 398.901 800.002 398.901 720 398.901C639.998 398.901 560.002 398.901 480 398.901C399.998 398.901 320.002 398.901 240 398.901C159.998 398.901 80.0018 398.901 0 398.901V173.301Z" fill="#9747FF" fill-opacity="0.19"/>
  <path d="M0 173.299C80.0018 182.134 159.998 190.974 240 211.699C320.002 232.423 399.998 265.042 480 254.899C560.002 244.756 639.998 191.861 720 187.699C800.002 183.537 879.998 228.119 960 250.099C1040 272.079 1120 271.467 1200 269.299C1280 267.131 1360 263.418 1440 259.699V398.899C1360 398.899 1280 398.899 1200 398.899C1120 398.899 1040 398.899 960 398.899C879.998 398.899 800.002 398.899 720 398.899C639.998 398.899 560.002 398.899 480 398.899C399.998 398.899 320.002 398.899 240 398.899C159.998 398.899 80.0018 398.899 0 398.899V173.299Z" fill="#9747FF" fill-opacity="0.19"/>
  <path d="M0 312.499C80.0018 318.697 159.998 324.895 240 312.499C320.002 300.103 399.998 269.12 480 264.499C560.002 259.878 639.998 281.621 720 283.699C800.002 285.777 879.998 268.197 960 254.899C1040 241.602 1120 232.587 1200 240.499C1280 248.411 1360 273.255 1440 298.099V398.899C1360 398.899 1280 398.899 1200 398.899C1120 398.899 1040 398.899 960 398.899C879.998 398.899 800.002 398.899 720 398.899C639.998 398.899 560.002 398.899 480 398.899C399.998 398.899 320.002 398.899 240 398.899C159.998 398.899 80.0018 398.899 0 398.899V312.499Z" fill="#9747FF" fill-opacity="0.19"/>
  <path d="M0 250.099C80.0018 254.171 159.998 258.238 240 269.299C320.002 280.36 399.998 298.41 480 307.699C560.002 316.987 639.998 317.51 720 322.099C800.002 326.688 879.998 335.333 960 341.299C1040 347.264 1120 350.545 1200 336.499C1280 322.452 1360 291.073 1440 259.699V398.899C1360 398.899 1280 398.899 1200 398.899C1120 398.899 1040 398.899 960 398.899C879.998 398.899 800.002 398.899 720 398.899C639.998 398.899 560.002 398.899 480 398.899C399.998 398.899 320.002 398.899 240 398.899C159.998 398.899 80.0018 398.899 0 398.899V250.099Z" fill="#9747FF" fill-opacity="0.19"/>
  </svg>